<svg xmlns="http://www.w3.org/2000/svg" viewBox="0 0 203 31.3"><defs><style>.cls-1{fill:#eb5144;}.cls-2{fill:#3866ab;}</style></defs><title>logo_oss</title><g id="Layer_2" data-name="Layer 2"><g id="L_P_2"><g id="Home"><g id="top_NavBar"><g id="Horisontal"><g id="Logo"><g id="RED"><g id="RED-2" data-name="RED"><path class="cls-1" d="M21,24.59c-.93.12-1.88.19-2.85.23a27.4,27.4,0,0,0,3-3.6h.12c.79,0,1.6,0,2.41-.08a36.3,36.3,0,0,1-2.48,3.43Zm1.58-5.67c-.43.75-.88,1.46-1.35,2.14h0c.85,0,1.69,0,2.51-.08h0q.43-.69.85-1.4l.5-.89h0C24.3,18.78,23.46,18.87,22.59,18.91ZM8.94,16l.32.2c.11-.27.23-.55.35-.82l0-.07c.14-.32.29-.63.44-1v0c.15-.31.31-.62.47-.93l.1-.19c.16-.31.33-.61.51-.92l.36-.6.12-.19.25-.4.14-.22.24-.36.15-.22.25-.36.14-.2.3-.42.08-.11.39-.51.12-.16L14,8.23,14.12,8l.25-.3.16-.19.25-.28.16-.18.27-.29.14-.15.4-.41.12-.11.3-.28.16-.15.25-.23.18-.15L17,5.11,17.18,5l.25-.2.16-.13.34-.25.13-.09.33-.23.16-.1.25-.16.17-.1.23-.14.17-.09.24-.13.16-.08.28-.13.11,0,.38-.15.13,0,.25-.09.15,0,.23-.06.15,0,.23,0,.14,0,.25,0h.44l.41,0,.12,0,.28.05.13,0,.26.08.12,0a3,3,0,0,1,.35.17A3.12,3.12,0,0,1,25,3.6,5.24,5.24,0,0,1,26.08,6.5q0,.23,0,.46A13.05,13.05,0,0,1,26,9.54q0,.28-.09.56a25,25,0,0,1-2,6.19l-.31.65q-.44.9-1,1.8c.82,0,1.63-.13,2.41-.23l.12,0a35.65,35.65,0,0,0,2.47-5.73l0-.05.19-.61,0-.12.16-.56,0-.16.13-.51,0-.19.11-.48,0-.21.09-.45,0-.23c0-.14,0-.28.07-.43l0-.24c0-.14,0-.27.05-.4l0-.25c0-.13,0-.25,0-.38l0-.25c0-.12,0-.24,0-.36s0-.17,0-.26,0-.23,0-.34,0-.17,0-.26,0-.21,0-.32,0-.17,0-.26,0-.2,0-.3,0-.17,0-.25,0-.19,0-.28l0-.25,0-.26,0-.24-.05-.25-.06-.23-.07-.23-.08-.22-.08-.21-.09-.21-.09-.19-.11-.2L28,1.92l-.12-.19-.1-.16-.14-.18-.11-.14-.17-.17L27.2,1,27,.8,26.9.72,26.56.5h0a3.58,3.58,0,0,0-.41-.2L26,.25,25.7.15l-.16,0L25.22,0l-.14,0-.49,0h0l-.43,0-.17,0-.33,0-.19,0L23.1.2l-.2.06-.33.1-.2.07L22,.57l-.18.07-.47.22-.07,0-.56.3-.14.08-.43.25L20,1.64l-.38.25-.2.14L19,2.31l-.2.15-.4.31-.18.14-.47.4-.11.09-.6.54h0l-.57.55-.15.15-.43.45-.18.2-.4.44L15.11,6a41.1,41.1,0,0,0-3.76,5.23l-.3.51h0c-.19.34-.38.67-.56,1l-.12.23c-.17.31-.33.63-.48.94l0,.05q-.27.55-.52,1.09h0c-.14.32-.28.63-.41.95Zm-1.33,7.4-.7-.29a16.33,16.33,0,0,0-.14,2.29l1.11.36A8.84,8.84,0,0,1,7.61,23.43ZM18.9,27.05A29.79,29.79,0,0,0,21,24.75c-1,.12-2,.2-3,.23A18.46,18.46,0,0,1,15.56,27c.63,0,1.27,0,1.93,0Zm-1.42.19c-.6,0-1.24,0-1.88,0h-.26c-2.2,1.47-4.28,1.95-5.76,1.09A3.78,3.78,0,0,1,7.93,26H7.83l-.08,0h0l-.82-.26h0l-.15-.05c.07,2.46.83,4.33,2.32,5.19,2.38,1.37,6-.15,9.63-3.58ZM9.2,16.37h0l-.34-.21Q8.4,17.27,8,18.34l.4.2C8.65,17.84,8.91,17.11,9.2,16.37ZM7.62,23.26a18.08,18.08,0,0,1,.78-4.56L8,18.5A25.45,25.45,0,0,0,6.93,23Z"/></g></g><g id="BLUE1"><g id="BLUE1-2" data-name="BLUE1"><path class="cls-2" d="M11.35,12.33l.27-.47a37.31,37.31,0,0,1,5.86-.46,36,36,0,0,1,7.8.83q-.09.33-.2.67a28.48,28.48,0,0,0-8-1.09A30.44,30.44,0,0,0,11.35,12.33Zm-4.8,1.46-.06-.12c0-.09-.08-.18-.11-.28l0-.09,0-.09a18.07,18.07,0,0,0-2.39,1.08l0,.06.06.18.08.19.09.19.09.17.05.09a11.08,11.08,0,0,1,2.24-1.35ZM.43,21h0l.13.23h0v0l.07.12.16.25.07.1q.16.22.35.43l.12.13.2.2.16.16.2.18L2.2,23l.25.19.3.22.19.13.34.22.16.1.54.31.07,0,.53.27.13.06.58.27,0,0c.45.2.93.38,1.43.56h0l1.11.36h.05l.79.22h0q.85.22,1.77.4h.08q.91.18,1.88.31h0l1,.11h0q1,.1,2,.16h0c.63,0,1.27,0,1.93,0l1.42,0h0l.79,0h0a35.07,35.07,0,0,0,5.13-.66l.09,0,.52-.12.21,0,.45-.11.26-.07.4-.11.3-.09.36-.11.32-.1.32-.1.35-.12.27-.1.39-.15.21-.08.52-.22a.11.11,0,0,0,.06-.1V21.57l-.44.34-.14.1-.36.24-.15.09-.53.31h0l-.57.29-.18.08-.46.2-.19.08-.65.25h0l-.68.23-.22.07-.53.16-.22.06-.75.19h0l-.77.17-.25,0-.6.11-.25,0-.84.12h0A31.53,31.53,0,0,1,17,25L15.8,25l-.38,0-.84-.05-.42,0-.78-.08-.4,0-.81-.12-.31,0-1.06-.2h0l-1.09-.26-.1,0-.89-.26-.22-.07-.73-.26q-.54-.2-1-.42l-.41-.19-.42-.21L5.6,22.5l-.3-.17-.25-.15-.44-.3-.2-.15-.28-.22L4,21.35l-.15-.14h0L3.62,21a3.79,3.79,0,0,1-1.19-2.6,4.18,4.18,0,0,1,1.76-3.14l-.06-.11L4,15l-.09-.19-.08-.2v0L3.8,14.4v0C1.42,15.71,0,17.4,0,19.24A3.82,3.82,0,0,0,.43,21ZM27.5,13.8a11.13,11.13,0,0,1,2.3,1.38,0,0,0,0,0,.06,0V13.75a.07.07,0,0,0,0-.06,21.17,21.17,0,0,0-2-.77Q27.66,13.36,27.5,13.8Zm-21-.55v0l0,0c0,.09.06.17.1.26l0,.08,0,0v0a19.9,19.9,0,0,1,3.73-1.22l.28-.5a27.2,27.2,0,0,0-4.23,1.14Z"/></g></g><g id="BLUE2"><g id="BLUE2-2" data-name="BLUE2"><path class="cls-2" d="M3.77,13.21C3.77,9.88,8.42,7,15,5.9h0l-.42.51c-3.92.84-6.89,2.44-7.94,4.38h0a3.6,3.6,0,0,0-.31.77h0a3.14,3.14,0,0,0-.08.37V12a3,3,0,0,0,0,.37,3,3,0,0,0,0,.31v.1q0,.11,0,.21l0,.11.06.21,0,.09c0,.09.07.19.11.28l.06.12.08.16.08.14.08.13.1.15.07.09c.09.12.18.23.28.35l0,.05.18.19.06.06.21.19h0a8.63,8.63,0,0,0,1.11.84l.34.21.5.28.06,0,.48.24.07,0,.53.24,0,0a18.84,18.84,0,0,0,1.9.68l.1,0,.56.16.16,0,.53.13.18,0,.57.12.15,0q.73.14,1.5.25l.16,0,.6.07.26,0,.52,0,.29,0,.51,0,.29,0,.56,0h2l.87,0c.87,0,1.71-.13,2.53-.24q.69-.1,1.35-.22h0l.58-.12.16,0q.84-.19,1.62-.42l.23-.07.42-.14.28-.1.37-.13.56-.22.27-.12.36-.16.25-.12L32,16.6l.15-.08.51-.3.15-.1.36-.24.14-.1.43-.35v3.22a.07.07,0,0,1,0,0l0,0-.52.23L33,19l-.4.16-.24.09-.38.14-.26.09-.39.13-.26.08-.53.15-.41.11-.34.09-.38.09-.3.07-.42.09-.27.06-.46.09-.2,0q-.88.16-1.79.28h-.11l-.58.07-.17,0-.58.05h-.16l-.62,0h0c-.82.05-1.66.08-2.51.08H20.08l-.67,0-.29,0-.61,0-.3,0-.58,0-.3,0-.57-.06-.29,0-.56-.08-.28,0-.56-.09-.26,0-.56-.11-.23,0-.57-.12-.21,0L12.65,20l-.19,0-.57-.16-.16,0-.58-.18-.13,0-.58-.2-.1,0-.59-.22-.07,0-.59-.25,0,0A11.5,11.5,0,0,1,5,16.06L4.89,16l-.18-.23-.09-.12-.14-.21-.09-.15-.11-.2-.09-.17-.09-.19L4,14.53,4,14.35c0-.07,0-.14-.06-.21l0-.16c0-.08,0-.16,0-.25s0-.09,0-.13A3.58,3.58,0,0,1,3.77,13.21Zm22.11-7c0-.19-.06-.37-.1-.54a38.1,38.1,0,0,0-9.17,0l-.5.47a31.38,31.38,0,0,1,9.77.06ZM29,6.93a13.56,13.56,0,0,1,4.63,2.31.06.06,0,0,0,.11-.05V7.78a.07.07,0,0,0,0-.06A24,24,0,0,0,29.05,6.2C29,6.44,29,6.68,29,6.93Z"/></g></g></g><g id="Type"><path class="cls-1" d="M69.59,18.4a3.37,3.37,0,0,1-1.37-.28,3.55,3.55,0,0,1-1.86-1.86,3.53,3.53,0,0,1,0-2.74,3.55,3.55,0,0,1,1.86-1.86,3.37,3.37,0,0,1,1.37-.28h16a1.26,1.26,0,1,1,0,2.53h-16a1,1,0,0,0-.7.28.91.91,0,0,0-.3.7.92.92,0,0,0,.3.68,1,1,0,0,0,.7.29H84.1a3.47,3.47,0,0,1,1.38.28A3.48,3.48,0,0,1,87.36,18a3.47,3.47,0,0,1,.28,1.38,3.38,3.38,0,0,1-.28,1.37,3.58,3.58,0,0,1-.75,1.11,3.36,3.36,0,0,1-1.12.74,3.63,3.63,0,0,1-1.38.26h-16a1.26,1.26,0,1,1,0-2.53H84.21a1,1,0,0,0,.68-.28.89.89,0,0,0,.29-.67,1,1,0,0,0-.29-.71.93.93,0,0,0-.68-.29Zm-5.83-1.26a6.5,6.5,0,0,1-.33,2,6.17,6.17,0,0,1-1,1.84,5.24,5.24,0,0,1-1.53,1.36,3.92,3.92,0,0,1-2,.53h-12A3.84,3.84,0,0,1,45,22.28a5.28,5.28,0,0,1-1.44-1.36,6.3,6.3,0,0,1-.91-1.82,6.33,6.33,0,0,1,0-4,6.15,6.15,0,0,1,1-1.84,5.25,5.25,0,0,1,1.53-1.36,3.93,3.93,0,0,1,2-.53h12A3.85,3.85,0,0,1,61.1,12a5.27,5.27,0,0,1,1.44,1.36,6.27,6.27,0,0,1,.91,1.82,6.52,6.52,0,0,1,.32,2Zm-5.4,3.21A3,3,0,0,0,59.83,20a2.73,2.73,0,0,0,.91-.8,2.83,2.83,0,0,0,.45-1,4.63,4.63,0,0,0,0-2.08,2.83,2.83,0,0,0-.45-1,2.71,2.71,0,0,0-.91-.8,3,3,0,0,0-1.48-.33H47.72a2.94,2.94,0,0,0-1.49.33,2.75,2.75,0,0,0-.9.8,2.82,2.82,0,0,0-.45,1,4.63,4.63,0,0,0,0,2.08,2.81,2.81,0,0,0,.45,1,2.76,2.76,0,0,0,.9.8,3,3,0,0,0,1.49.33Z"/><path class="cls-2" d="M93.41,18.4A3.38,3.38,0,0,1,92,18.12a3.55,3.55,0,0,1-1.86-1.86,3.53,3.53,0,0,1,0-2.74A3.56,3.56,0,0,1,92,11.67a3.38,3.38,0,0,1,1.37-.28h16a1.26,1.26,0,1,1,0,2.53h-16a1,1,0,0,0-.7.28.9.9,0,0,0-.3.7.92.92,0,0,0,.3.68,1,1,0,0,0,.7.29h14.57a3.47,3.47,0,0,1,1.38.28A3.48,3.48,0,0,1,111.17,18a3.47,3.47,0,0,1,.28,1.38,3.38,3.38,0,0,1-.28,1.37,3.56,3.56,0,0,1-.75,1.11,3.35,3.35,0,0,1-1.12.74,3.63,3.63,0,0,1-1.38.26H92a1.26,1.26,0,1,1,0-2.53H108a1,1,0,0,0,.68-.28.9.9,0,0,0,.29-.67,1,1,0,0,0-.29-.71.94.94,0,0,0-.68-.29Zm29.24,3.43V19.42a5.27,5.27,0,0,0,1.39-.2,7.5,7.5,0,0,0,1.52-.62,13.34,13.34,0,0,0,1.71-1.11q.91-.68,2-1.63a1.22,1.22,0,0,0,.27-.34.85.85,0,0,0,.11-.41.95.95,0,0,0-.95-.95,1.06,1.06,0,0,0-.67.28q-1.29,1.13-2.14,1.75a8.65,8.65,0,0,1-1.53.92,4.2,4.2,0,0,1-1.26.36q-.59.06-1.36.06a12.29,12.29,0,0,1-1.38-.07,4.54,4.54,0,0,1-1.29-.36,8.48,8.48,0,0,1-1.54-.92q-.86-.62-2.12-1.73a2.07,2.07,0,0,0-.32-.2.78.78,0,0,0-.36-.08.95.95,0,0,0-.95.95.85.85,0,0,0,.11.41,1.24,1.24,0,0,0,.27.34q1.11,1,2,1.64a13.67,13.67,0,0,0,1.67,1.1,7.14,7.14,0,0,0,1.49.62,5.44,5.44,0,0,0,1.46.2v2.41a.95.95,0,1,0,1.9,0Zm11.9-2.41h11a.7.7,0,0,1,.51.22.73.73,0,0,1,.22.53.67.67,0,0,1-.22.5.72.72,0,0,1-.51.21H133.46a.95.95,0,1,0,0,1.9h12a2.72,2.72,0,0,0,1-.2,2.52,2.52,0,0,0,.84-.55,2.7,2.7,0,0,0,.56-.83,2.54,2.54,0,0,0,.21-1,2.61,2.61,0,0,0-.21-1,2.61,2.61,0,0,0-1.4-1.4,2.61,2.61,0,0,0-1-.21H134.51a.74.74,0,0,1-.52-.22.69.69,0,0,1-.23-.51.68.68,0,0,1,.23-.52.76.76,0,0,1,.52-.21h12a.95.95,0,1,0,0-1.9h-12a2.54,2.54,0,0,0-1,.21,2.66,2.66,0,0,0-1.39,1.39,2.65,2.65,0,0,0,0,2.05,2.66,2.66,0,0,0,1.39,1.39,2.53,2.53,0,0,0,1,.21Zm30.36-5.26H151.32a.95.95,0,0,0-.95.95.89.89,0,0,0,.26.64,1,1,0,0,0,.61.31h5.93v5.77a.95.95,0,1,0,1.9,0V16.06h5.85a.95.95,0,1,0,0-1.9Zm3.23.95a.94.94,0,0,0,.95.95h14a.95.95,0,1,0,0-1.9h-14a.95.95,0,0,0-.95.95Zm2.41,7.66h12.54a.95.95,0,1,0,0-1.9H170.65a.65.65,0,0,1-.45-.15.45.45,0,0,1-.17-.35v-1h12.62a.95.95,0,1,0,0-1.9H169.4a2,2,0,0,0-1,.18.75.75,0,0,0-.31.71v1.78a2.53,2.53,0,0,0,.22,1.07,2.75,2.75,0,0,0,.55.81,2.45,2.45,0,0,0,.77.52,2.17,2.17,0,0,0,.87.19ZM203,21.83V16.06a2,2,0,0,0-.45-1.34,1.52,1.52,0,0,0-1.24-.55,1.77,1.77,0,0,0-.87.22,2.07,2.07,0,0,0-.67.59h0l-4.52,5.18a2.14,2.14,0,0,1-.25.21.48.48,0,0,1-.61,0,2.14,2.14,0,0,1-.25-.21L189.57,15a3.56,3.56,0,0,0-.69-.57,1.56,1.56,0,0,0-.85-.24,1.52,1.52,0,0,0-1.24.55,2,2,0,0,0-.45,1.34v5.77a.95.95,0,1,0,1.9,0V17.52q0-.81.1-.81t.55.53l4.35,4.94a1.6,1.6,0,0,0,.63.44,2.3,2.3,0,0,0,1.62,0,1.61,1.61,0,0,0,.63-.44l4.35-4.94q.47-.53.55-.53t.1.81v4.31a.95.95,0,1,0,1.9,0Z"/></g></g></g></g></g></g></svg>